<svg id="Layer_5" enable-background="new 0 0 64 64" height="512" viewBox="0 0 64 64" width="512" xmlns="http://www.w3.org/2000/svg"><path d="m38 5c-1.654 0-3 1.346-3 3v1h2v-1c0-.551.448-1 1-1s1 .449 1 1v.171c0 .267-.104.519-.293.708l-3.707 3.707v2.414h6v-2h-3.586l2.707-2.707c.567-.566.879-1.32.879-2.122v-.171c0-1.654-1.346-3-3-3z"/><path d="m49 5h-2.48l-4.52 5.649v2.351h5v2h2v-2h2v-2h-2zm-2 6h-2.72l2.72-3.399z"/><path d="m56 8c-.352 0-.686.072-1 .184v-3.184h-2v6 1 3h2v-3-1c0-.551.448-1 1-1s1 .449 1 1v4h2v-4c0-1.654-1.346-3-3-3z"/><path d="m45.603 47.701-8.326-2.938c-.599-.211-1.05-.69-1.239-1.274-.04-.125-.047-.261-.062-.394.871-.611 1.663-1.315 2.368-2.095h4.656c1.654 0 3-1.346 3-3v-4.837-.163-.163-5.68c0-1.215-.185-2.405-.508-3.552.543.837 1.481 1.395 2.551 1.395.906 0 1.759-.399 2.338-1.095l4.088-4.905h5.531c1.654 0 3-1.346 3-3v-12c0-1.654-1.346-3-3-3h-26c-1.654 0-3 1.346-3 3v10.146c-.688.098-1.364.245-2.023.448.008-.198.023-.396.023-.594 0-7.72-6.28-14-14-14s-14 6.28-14 14 6.28 14 14 14c1.016 0 2.019-.118 3-.332v5.332c0 2.757 2.243 5 5 5h.571c1.033 2.006 2.54 3.742 4.4 5.06-.073.769-.567 1.443-1.306 1.704l-8.326 2.938c-.621.219-1.369.546-2.16 1.041-.532.334-.981.68-1.352 1.003-2.376 2.05-3.827 5.068-3.827 8.329v4.925h41.942v-4.925c0-3.261-1.451-6.28-3.827-8.33l.002-.002c-.342-.295-.741-.603-1.203-.903-.84-.544-1.642-.901-2.311-1.139zm-5.168-28.701c2.264 2.109 3.565 5.057 3.565 8.157v1.781c-.597-.436-1.292-.734-2.051-.859-.072-.404-.221-.791-.453-1.138l-.602-.902c-.851-1.277-2.276-2.039-3.81-2.039-.907 0-1.785.266-2.541.769l-1.595 1.063c-.164.11-.355.168-.553.168h-7.395c-1.333 0-2.453.88-2.842 2.085-.803.138-1.533.468-2.158.94v-3.903c0-1.968 1.333-3.675 3.242-4.153l.328-.082.561-.701c1.72-2.15 4.188-3.58 6.885-4.03.083 1.581 1.383 2.844 2.984 2.844zm-37.384-4h3.977c.055 1.407.222 2.747.489 4h-3.412c-.569-1.236-.936-2.582-1.054-4zm23.898-2h-3.977c-.055-1.407-.222-2.747-.489-4h3.411c.57 1.236.937 2.582 1.055 4zm-.043 2.429c-1.664.843-3.154 2.029-4.338 3.51l-.049.061h-.053c.274-1.278.439-2.62.494-4h3.996c-.011.144-.032.286-.05.429zm-8.833 8.797c-.516.631-1.216 1.286-2.073 1.594v-4.82h3.565c-.785.898-1.317 2.006-1.492 3.226zm-2.073-5.226v-4h4.961c-.06 1.39-.235 2.739-.534 4zm4.974-6h-4.974v-4h4.427c.294 1.242.485 2.589.547 4zm-4.974-6v-4.812c1.552.548 2.918 2.332 3.829 4.812zm-2-4.812v4.812h-3.829c.911-2.48 2.277-4.264 3.829-4.812zm0 6.812v4h-4.974c.062-1.411.253-2.758.547-4zm-6.972 4h-3.977c.118-1.418.485-2.764 1.055-4h3.411c-.267 1.253-.435 2.593-.489 4zm1.998 2h4.974v4h-4.426c-.295-1.242-.486-2.589-.548-4zm4.974 6v4.812c-1.552-.547-2.918-2.331-3.829-4.812zm10.727-14h-2.773c-.476-1.47-1.095-2.773-1.834-3.837 1.842.874 3.424 2.199 4.607 3.837zm-14.847-3.837c-.739 1.064-1.358 2.367-1.834 3.837h-2.773c1.183-1.638 2.765-2.963 4.607-3.837zm-4.607 17.837h2.773c.476 1.47 1.095 2.773 1.834 3.837-1.842-.874-3.424-2.199-4.607-3.837zm14.727 12c0-1.302.839-2.402 2-2.816v1.329c0 1.547.252 3.047.719 4.458-1.521-.144-2.719-1.413-2.719-2.971zm15.064 12.654c.005.005.012.01.017.015l-3.111 3.734-3.11-3.733c.417-.428.733-.947.926-1.516.607.305 1.238.575 1.898.795l.316.105.316-.105c.642-.214 1.256-.477 1.849-.773.079.221.196.488.367.773.179.295.368.528.532.705zm1.317 15.346h-2.059l1.844-5.625 2.506 1.88zm-11.06-3.741 2.466-1.85 1.833 5.591h-2.054zm-2.321-9.081 2.167-.765 1.768 5.396-3.935-.656zm4.132-1.458 3.448 4.137-1.726 1.381-1.799-5.49zm2.386 7.547 2.453-1.963 2.453 1.963-2.206 6.733h-.493zm7.293-7.547.078.028-1.799 5.49-1.726-1.381zm1.964.693 2.231.787-.005 3.952-3.997.666zm-17.775 1.471v4.963l4.53.755-2.852 2.139 2.556 4.259h-4.234v-5h-2v5h-6v-2.925c0-2.79 1.303-5.357 3.408-7.034.506-.431 1.242-.968 2.217-1.417.913-.421 1.745-.63 2.375-.74zm26.534 2.157c2.105 1.677 3.408 4.244 3.408 7.034v2.925h-5.942v-5h-2v5h-4.274l2.602-4.254-2.858-2.144 4.529-.755.006-4.941c.639.116 1.49.336 2.424.779.916.434 1.615.942 2.105 1.356zm-15.534-8.1c-4.799-1.746-8-6.296-8-11.428v-2.513c0-.551.448-1 1-1h7.395c.596 0 1.171-.174 1.664-.504l1.594-1.062c1.146-.763 2.815-.429 3.578.715l.602.901c.108.166.167.358.167.555v2.908c0 2.787-.95 5.399-2.582 7.487h-5.418v2h3.443c-1.017.815-2.172 1.479-3.443 1.941zm11-3.941h-3.141c.203-.326.394-.658.57-1h.733c1.063 0 2.039-.355 2.838-.938v.938c0 .551-.448 1-1 1zm1-5.837c0 1.526-1.214 2.765-2.725 2.826.471-1.417.725-2.923.725-4.476v-1.372c1.154.36 2 1.426 2 2.697v.162zm-.854-14.163h1.854v2.957c0 .099.02.192.029.288-.469-1.163-1.099-2.255-1.883-3.245zm17.854-3c0 .551-.448 1-1 1h-6.469l-4.688 5.625c-.197.238-.489.375-.8.375-.575 0-1.043-.468-1.043-1.043v-4.957h-13c-.552 0-1-.449-1-1v-12c0-.551.448-1 1-1h26c.552 0 1 .449 1 1z"/></svg>